<?xml version="1.0" encoding="utf-8"?>
<!-- Generator: Adobe Illustrator 24.1.1, SVG Export Plug-In . SVG Version: 6.00 Build 0)  -->
<svg version="1.1" id="Camada_1" xmlns="http://www.w3.org/2000/svg" xmlns:xlink="http://www.w3.org/1999/xlink" x="0px" y="0px"
	 viewBox="0 0 1459.4 306.3" style="enable-background:new 0 0 1459.4 306.3;" xml:space="preserve">
<style type="text/css">
	.st0{fill:url(#SVGID_1_);}
</style>
<linearGradient id="SVGID_1_" gradientUnits="userSpaceOnUse" x1="310.9367" y1="591.4146" x2="1129.4478" y2="-225.2614">
	<stop  offset="0.112" style="stop-color:#1A28D3"/>
	<stop  offset="0.872" style="stop-color:#00B8F4"/>
</linearGradient>
<path class="st0" d="M824.3,181.9c-14.5,0-28,11.4-28,28c0,17,13.5,28.4,28,28.4c14.5,0,28-11.3,28-28
	C852.3,193.2,838.8,181.9,824.3,181.9 M1113.6,196.8c-22.7,0-41.1-18.4-41.1-43.6s18.4-43.6,41.1-43.6c22.7,0,41.1,18.4,41.1,43.6
	S1136.2,196.8,1113.6,196.8 M707.6,196.8c-22.7,0-41.1-18.4-41.1-43.6s18.4-43.6,41.1-43.6c22.7,0,41.1,18.4,41.1,43.6
	S730.3,196.8,707.6,196.8 M522.6,196.8c-22,0-40.4-17.4-40.4-43.6c0-25.9,18.4-43.6,40.4-43.6c22,0,40.4,17.7,40.4,43.6
	C563,179.4,544.5,196.8,522.6,196.8 M335.7,196.8c-22.7,0-41.1-18.4-41.1-43.6s18.4-43.6,41.1-43.6c22.7,0,41.1,18.4,41.1,43.6
	S358.4,196.8,335.7,196.8 M83.3,196.4c-22.3,0-41.1-17.7-41.1-43.6c0-26.2,18.8-43.6,41.1-43.6c22.3,0,40.8,17.4,40.8,43.6
	C124.1,178.7,105.6,196.4,83.3,196.4 M1391.5,68.1c-17.7,0-35.5,7.4-47.9,23.4c-9.2-13.5-24.4-23.4-43.9-23.4
	c-19.2,0-32.6,8.5-41.5,19.8v-8.5c0-5.3-3.2-8.5-8.5-8.5H1226c-5.3,0-8.5,3.2-8.5,8.5v147.5c0,5.3,3.2,8.5,8.5,8.5h26.2
	c5.3,0,8.5-3.2,8.5-8.5v-80.8c0-23,11.4-36.9,29.1-36.9c17.7,0,27,12.1,27,35.5v82.3c0,5.3,3.2,8.5,8.5,8.5h26.2
	c5.3,0,8.5-3.2,8.5-8.5v-80.8c0-23,11.3-36.9,29.1-36.9s26.9,12.1,26.9,35.5v82.3c0,5.3,3.2,8.5,8.5,8.5h26.2c5.3,0,8.5-3.2,8.5-8.5
	v-87.6C1459.2,95.7,1434,68.1,1391.5,68.1 M1113.6,68.1c-45.7,0-84,35.8-84,85.1s37.6,85.1,84,85.1c45.7,0,84-35.8,84-85.1
	S1160,68.1,1113.6,68.1 M978.8,175.1c-4.6,0-7.5,2.1-9.9,6.4c-6.4,11-16.7,15.3-29.8,15.3c-22.4,0-39.4-18.8-39.4-43.6
	c0-25.2,17.4-43.6,39.4-43.6c12.4,0,22,5,28,14.5c2.5,4.3,5.7,6.4,10.3,6.4h28.4c6,0,9.2-3.5,7.5-9.6c-9.6-31.2-40.1-52.8-74.8-52.8
	c-44.7,0-81.5,35.8-81.5,85.1s35.5,85.1,81.5,85.1c35.5,0,66.7-21.3,75.9-53.9c1.4-5.7-2.1-9.2-7.8-9.2H978.8z M707.6,68.1
	c-45.7,0-84,35.8-84,85.1s37.6,85.1,84,85.1c45.7,0,84-35.8,84-85.1S754.1,68.1,707.6,68.1 M335.7,68.1c-45.7,0-84,35.8-84,85.1
	s37.6,85.1,84,85.1c45.7,0,84-35.8,84-85.1S382.2,68.1,335.7,68.1 M134,70.9c-5.3,0-8.5,3.2-8.5,8.5v9.2
	c-9.6-11.7-27.3-20.6-45-20.6C37.2,68.1,0,104.9,0,153.2s35.1,81.5,79.4,81.5c19.9,0,35.1-9.2,44-18.8
	c-0.4,33.7-18.1,48.9-48.6,48.9c-16.3,0-31.5-5-49.3-16.3c-4.6-3.2-9.9-2.1-12.4,2.8L2.5,272.3c-2.5,5-1.8,9.6,3.2,12.8
	c22,14.2,47.9,21.3,70.2,21.3c58.5,0,90.8-31.5,90.8-104.2V79.4c0-5.3-3.2-8.5-8.5-8.5H134z M527.5,68.1c-17,0-33.7,7.4-44.7,18.8
	V11.7c0-5.3-3.2-8.5-8.5-8.5h-26.2c-5.3,0-8.5,3.2-8.5,8.5v215.2c0,5.3,3.2,8.5,8.5,8.5h23.7c5.3,0,8.5-3.2,8.5-8.5v-9.2
	c10.3,11.7,29.4,20.6,48.2,20.6c41.5,0,77.3-37.6,77.3-85.1C605.9,104.9,569.7,68.1,527.5,68.1 M206,1.8c-10.3-4.6-17.4,0-17.4,11.3
	v212.4c0,11.4,7.1,15.9,17.4,11.4l13.5-6c8.5-3.9,12.4-9.6,12.4-18.8V26.6c0-9.2-3.9-14.9-12.4-18.8L206,1.8z"/>
</svg>
