<svg width="228" height="72" viewBox="0 0 228 72" fill="none" xmlns="http://www.w3.org/2000/svg">
<path d="M0.392 56.856V2.054H22.122V51.98C22.122 53.888 23.4293 54.842 26.044 54.842L24.454 71.06H15.762C5.51533 71.06 0.392 66.3253 0.392 56.856ZM58.6001 70H36.5521V20.286H58.6001V70ZM36.1281 9.57999C36.1281 3.57333 39.9087 0.569997 47.4701 0.569997C55.0314 0.569997 58.8121 3.57333 58.8121 9.57999C58.8121 12.6893 57.8581 14.9153 55.9501 16.258C54.1127 17.6007 51.2861 18.272 47.4701 18.272C43.6541 18.272 40.7921 17.636 38.8841 16.364C37.0467 15.0213 36.1281 12.76 36.1281 9.57999ZM106.011 17.954C115.904 17.954 120.851 22.7593 120.851 32.37V70H98.4851V37.14C98.4851 36.0093 97.8844 35.444 96.6831 35.444C95.5524 35.444 94.2804 35.7973 92.8671 36.504V70H70.8191V19.226H90.8531L91.4891 22.512C95.9411 19.4733 100.782 17.954 106.011 17.954ZM184.687 70H160.837L154.689 53.358H154.265V70H132.535V2.054H154.265V37.034H154.689L162.109 19.226H185.111L173.239 45.62C174.582 48.5173 176.525 52.722 179.069 58.234C181.684 63.6753 183.556 67.5973 184.687 70ZM214.332 41.592V70H192.496V19.226H211.364L212 22.618H212.424C214.12 21.0633 216.064 20.0033 218.254 19.438C220.445 18.802 223.66 18.484 227.9 18.484L227.264 36.08H220.056C217.936 36.08 216.452 36.4687 215.604 37.246C214.756 38.0233 214.332 39.472 214.332 41.592Z" fill="#151515"/>
</svg>
