<svg width="178" height="54" viewBox="0 0 178 54" fill="none" xmlns="http://www.w3.org/2000/svg">
<path d="M42.6181 8.90396L32.8917 8.49007C32.4318 8.49007 30.9142 11.2494 28.3388 16.7679C25.7635 22.2405 23.5331 27.5521 21.6476 32.7028C19.7621 37.8534 18.8193 41.5785 18.8193 43.8779C18.8193 46.1313 19.5321 47.258 20.9578 47.258C22.4294 47.258 24.2689 45.7634 26.4763 42.7741C26.7063 42.4982 26.9362 42.3603 27.1661 42.3603C27.3961 42.3603 27.5111 42.5672 27.5111 42.9811C27.5111 43.395 27.1891 44.1538 26.5453 45.2575C25.9475 46.3612 25.1427 47.5569 24.1309 48.8446C23.1192 50.0862 21.8085 51.19 20.199 52.1557C18.5894 53.1674 16.9338 53.6733 15.2323 53.6733C12.7029 53.6733 11.4382 51.9258 11.4382 48.4307C11.4382 44.1078 13.6227 36.7497 17.9915 26.3564C21.1187 19.0443 23.993 12.9739 26.6143 8.14516H25.7175L18.6124 8.0072C14.6574 8.0072 11.2083 8.51307 8.26507 9.5248C6.65548 10.0767 5.36782 10.9044 4.40207 12.0082C3.48231 13.0659 3.02243 14.3535 3.02243 15.8711L3.57429 18.7684C3.57429 19.2283 3.34435 19.4582 2.88447 19.4582C2.28662 19.4582 1.80375 18.8834 1.43584 17.7337C1.06794 16.538 0.883987 15.5032 0.883987 14.6295C0.883987 12.468 1.38986 10.6285 2.40159 9.11091C3.41333 7.59331 4.79297 6.44361 6.54051 5.66181C9.85165 4.19019 13.5077 3.45438 17.5087 3.45438C21.5096 3.45438 26.0394 3.70732 31.0981 4.21318C36.1568 4.67306 40.7556 4.903 44.8945 4.903C49.0334 4.903 51.7237 4.25917 52.9654 2.97151C53.1034 3.29342 53.1724 3.61534 53.1724 3.93726C53.1724 5.45486 52.2066 6.67355 50.2751 7.59331C48.3436 8.46708 45.7913 8.90396 42.6181 8.90396ZM46.7123 24.4249L50.2304 24.4939H50.9202C50.2304 24.9998 49.2417 26.4944 47.954 28.9777C46.7123 31.4611 45.7696 33.3466 45.1257 34.6343C44.5279 35.8759 43.8381 37.5775 43.0563 39.7389C42.3205 41.8544 41.9525 43.5789 41.9525 44.9126C41.9525 46.2462 42.4124 46.9131 43.3322 46.9131C43.93 46.8671 44.7578 46.4532 45.8155 45.6714C46.9193 44.8436 47.816 43.9928 48.5058 43.1191C49.2416 42.1993 50.0234 41.0496 50.8512 39.67C51.725 38.2443 52.4608 37.0256 53.0587 36.0139C53.7025 34.9562 54.0704 34.4273 54.1624 34.4273C54.4843 34.4273 54.6452 34.8642 54.6452 35.738C54.6452 36.5658 54.4153 37.3706 53.9554 38.1523C51.9779 41.4175 50.3454 43.9238 49.0577 45.6714C47.77 47.4189 46.2064 49.0285 44.3669 50.5001C42.5734 51.9258 40.9408 52.6386 39.4692 52.6386C36.8479 52.6386 35.5372 50.7071 35.5372 46.8441C35.5372 44.2228 36.0431 41.2565 37.0548 37.9454C38.0666 34.6343 39.5612 31.4381 41.5387 28.3569C39.9291 29.6446 38.3195 30.2884 36.7099 30.2884C36.204 30.2884 35.6752 30.1734 35.1233 29.9435C31.8582 36.3818 30.0876 39.601 29.8117 39.601C29.5818 39.601 29.4668 39.2331 29.4668 38.4973C29.4668 37.7155 29.7427 36.6577 30.2946 35.3241C30.8924 33.9444 31.5133 32.6338 32.1571 31.3921C32.8469 30.1504 33.2148 29.4606 33.2608 29.3226C31.6052 28.4949 30.7775 27.1612 30.7775 25.3217C30.7775 24.4019 31.0534 23.5741 31.6052 22.8383C32.2031 22.1025 33.0079 21.7346 34.0196 21.7346C35.0314 21.7346 35.8591 22.0565 36.503 22.7004C36.411 22.9763 36.365 23.3902 36.365 23.942C36.365 25.1837 36.8019 26.1725 37.6757 26.9083C38.5954 27.5981 39.6991 27.943 40.9868 27.943C41.3547 27.943 41.6306 27.92 41.8146 27.874C43.4242 25.5746 45.0567 24.4249 46.7123 24.4249ZM79.6124 24.5629L83.0615 24.6319H83.7513C82.2337 25.8735 80.3712 29.0237 78.1638 34.0824C75.9564 39.0951 74.8527 42.7511 74.8527 45.0506C74.8527 46.2462 75.2666 46.8441 76.0943 46.8441C78.7616 46.8441 82.1648 42.9121 86.3037 35.0482C86.4876 34.7262 86.6486 34.5653 86.7866 34.5653C87.0625 34.5653 87.2004 35.0022 87.2004 35.8759C87.2004 36.7037 86.9705 37.5085 86.5106 38.2903C80.8541 47.8098 76.1173 52.5696 72.3003 52.5696C69.817 52.5696 68.5753 50.6611 68.5753 46.8441C68.5753 43.9928 69.0582 41.1876 70.0239 38.4283C64.7813 47.7179 59.9296 52.3626 55.4687 52.3626C52.3875 52.3626 50.8469 50.2472 50.8469 46.0163C50.8469 42.7971 51.5367 39.532 52.9164 36.2209C54.342 32.9097 56.3655 30.1044 58.9868 27.805C61.6081 25.4597 64.4824 24.287 67.6096 24.287C69.0812 24.287 70.4608 24.6319 71.7485 25.3217C73.0361 25.9655 73.8869 27.0232 74.3008 28.4949C74.8067 27.4371 75.5885 26.5174 76.6462 25.7356C77.7039 24.9538 78.6927 24.5629 79.6124 24.5629ZM73.8869 29.1157C73.427 27.6441 72.3463 26.9083 70.6448 26.9083C67.6096 26.9083 64.6663 29.0237 61.8151 33.2546C58.9638 37.4395 57.5382 41.1876 57.5382 44.4987C57.5382 45.9243 58.09 46.6371 59.1937 46.6371C60.3894 46.6371 61.7921 45.9013 63.4016 44.4297C65.0112 42.9121 66.4599 41.1416 67.7475 39.1181C70.5988 34.6113 72.6452 31.2771 73.8869 29.1157ZM111.458 34.4963C111.734 34.4963 111.872 34.9332 111.872 35.807C111.872 36.6807 111.481 37.7614 110.7 39.0491C109.964 40.3368 109.366 41.3255 108.906 42.0153C108.492 42.6592 107.756 43.7169 106.699 45.1885C105.641 46.6601 104.721 47.7179 103.939 48.3617C103.158 49.0055 102.169 49.7643 100.973 50.6381C98.9497 52.1097 96.3054 52.8455 93.0402 52.8455C89.821 52.8455 87.4757 52.0407 86.004 50.4311C84.5784 48.7756 83.8656 46.6371 83.8656 44.0158C83.8656 39.1871 85.5672 34.7722 88.9703 30.7713C92.4194 26.7243 96.4663 24.7008 101.111 24.7008C103.181 24.7008 104.836 25.2527 106.078 26.3564C107.319 27.4141 107.94 28.7018 107.94 30.2194C107.94 31.691 107.526 32.9787 106.699 34.0824C105.871 35.1861 104.928 35.738 103.87 35.738C101.801 35.738 100.766 34.8872 100.766 33.1856C100.766 32.6338 101.341 32.1049 102.491 31.5991C102.951 31.4151 103.365 31.0702 103.732 30.5643C104.1 30.0585 104.284 29.3916 104.284 28.5638C104.284 27.3682 103.64 26.7703 102.353 26.7703C99.5935 26.7703 96.8572 28.7708 94.1439 32.7717C91.4306 36.7727 90.074 40.6587 90.074 44.4297C90.074 48.1547 91.7066 50.0173 94.9717 50.0173C99.5245 50.0173 103.962 46.4992 108.285 39.463C109.159 38.0834 109.872 36.9107 110.424 35.9449C111.022 34.9792 111.366 34.4963 111.458 34.4963ZM139.493 38.4283C137.883 41.1416 136.25 43.6019 134.595 45.8094C131.054 50.4082 127.559 52.7076 124.11 52.7076C122.224 52.7076 120.798 51.7648 119.833 49.8793C118.913 47.9938 118.453 45.9013 118.453 43.6019C118.453 39.0031 119.143 36.7037 120.523 36.7037C122.684 36.7037 124.684 36.2209 126.524 35.2551C128.364 34.2434 129.283 32.9327 129.283 31.3231C129.283 30.0355 128.547 29.3916 127.076 29.3916C123.903 29.3916 120.385 32.8407 116.522 39.7389C116.154 40.4288 115.372 42.0383 114.176 44.5677C113.026 47.051 111.992 48.9365 111.072 50.2242C110.198 51.5119 109.324 52.1557 108.451 52.1557H104.243C105.668 49.4884 107.761 44.1078 110.52 36.0139C113.325 27.874 115.395 22.4244 116.729 19.6652C116.775 19.5732 117.05 18.9753 117.556 17.8716C118.108 16.7679 118.476 16.0091 118.66 15.5952C118.89 15.1813 119.304 14.3995 119.902 13.2498C120.5 12.1001 120.982 11.2494 121.35 10.6975C121.718 10.1456 122.224 9.36384 122.868 8.35211C123.512 7.29438 124.087 6.48959 124.592 5.93774C125.098 5.38588 125.696 4.74205 126.386 4.00624C127.076 3.22444 127.72 2.64959 128.318 2.28169C129.881 1.36193 131.307 0.902048 132.594 0.902048C135.124 0.902048 136.388 2.05175 136.388 4.35115C136.388 7.57031 134.434 11.8472 130.525 17.1818C126.662 22.4704 122.293 27.4831 117.418 32.2199L116.177 35.669C118.384 32.8177 120.89 30.3344 123.696 28.2189C126.501 26.0575 129.076 24.9768 131.422 24.9768C132.755 24.9768 133.79 25.2987 134.526 25.9425C135.308 26.5864 135.699 27.4601 135.699 28.5638C135.699 31.0932 134.572 33.1397 132.318 34.7032C130.111 36.2208 127.559 37.2096 124.661 37.6695C125.075 42.4522 125.742 45.3725 126.662 46.4302C127.122 46.9361 127.697 47.189 128.386 47.189C129.076 47.189 130.019 46.7751 131.215 45.9473C132.41 45.1195 133.376 44.2228 134.112 43.257C134.894 42.2453 135.699 41.0496 136.526 39.67C137.4 38.2903 138.136 37.0946 138.734 36.0829C139.378 35.0711 139.746 34.5653 139.838 34.5653C140.113 34.5653 140.251 35.0252 140.251 35.9449C140.251 36.8187 139.998 37.6465 139.493 38.4283ZM132.732 2.69558C130.157 2.69558 125.65 10.9734 119.212 27.5291C125.098 20.6309 129.237 14.8134 131.629 10.0767C133.008 7.59331 133.698 5.54684 133.698 3.93726C133.698 3.10947 133.376 2.69558 132.732 2.69558ZM150.953 4.00624H166.543C163.37 6.4436 159.001 13.9856 153.436 26.6323C152.011 29.8515 150.378 34.0824 148.538 39.325C146.745 44.5217 145.848 48.3157 145.848 50.7071C145.848 51.3509 145.94 51.8338 146.124 52.1557H137.225C138.513 46.5911 141.226 38.8652 145.365 28.9777C150.884 15.8252 154.448 8.35211 156.057 6.55858C152.148 6.65055 148.171 7.45534 144.124 8.97294C140.123 10.4446 137.8 12.2151 137.156 14.2846C137.11 14.4225 137.018 14.4915 136.88 14.4915C136.467 14.4915 136.26 14.1926 136.26 13.5947C136.26 13.5028 136.306 13.2728 136.398 12.9049C137.271 10.3756 138.536 8.42109 140.192 7.04145C141.847 5.66181 143.457 4.81103 145.02 4.48911C146.63 4.1672 148.607 4.00624 150.953 4.00624ZM177.806 12.629C175.552 14.1926 173.023 18.1935 170.218 24.6319H177.185L177.254 24.7008C177.254 24.9308 177.001 25.3447 176.495 25.9425C175.989 26.4944 175.552 26.7703 175.184 26.7703H169.252C165.619 35.784 163.802 41.5785 163.802 44.1538C163.802 45.9013 164.354 46.7751 165.458 46.7751C167.067 46.7751 168.953 45.3955 171.114 42.6362C171.62 42.0383 172.287 41.0266 173.115 39.601C175.23 36.1979 176.334 34.4963 176.426 34.4963C176.702 34.4963 176.84 34.8642 176.84 35.6C176.794 37.3476 174.885 40.7507 171.114 45.8094C169.873 47.4649 168.378 49.0055 166.631 50.4311C164.883 51.8568 163.296 52.5696 161.871 52.5696C159.249 52.5696 157.939 50.7301 157.939 47.051C157.939 43.9698 158.675 40.4288 160.146 36.4278V36.3588C159.272 37.9684 158.514 39.1641 157.87 39.9459C157.272 40.7277 156.927 41.1186 156.835 41.1186C156.651 41.1186 156.559 40.8426 156.559 40.2908C156.559 39.6929 156.858 38.7502 157.456 37.4625C158.1 36.1749 158.951 34.4963 160.008 32.4268C161.112 30.3574 162.009 28.4719 162.699 26.7703H158.077C157.939 26.7703 157.87 26.6783 157.87 26.4944C157.87 26.2644 158.031 25.8965 158.353 25.3907C158.721 24.8848 158.997 24.6319 159.181 24.6319H164.423C167.734 16.6759 171.091 12.698 174.495 12.698C176.472 12.698 177.576 12.675 177.806 12.629Z" fill="#126BA5"/>
</svg>
